<svg viewBox="0 0 32 32" xmlns="http://www.w3.org/2000/svg"><g data-name="Layer 40"><path d="M28 24H4a3 3 0 0 1-3-3V5a3 3 0 0 1 3-3h24a3 3 0 0 1 3 3v16a3 3 0 0 1-3 3ZM4 4a1 1 0 0 0-1 1v16a1 1 0 0 0 1 1h24a1 1 0 0 0 1-1V5a1 1 0 0 0-1-1Z" fill="#ffffff" class="fill-101820"></path><path d="M21 30H11a1 1 0 0 1-1-1.16l1-6a1 1 0 0 1 1-.84h8a1 1 0 0 1 1 .84l1 6A1 1 0 0 1 21 30Zm-8.82-2h7.64l-.67-4h-6.3Z" fill="#ffffff" class="fill-101820"></path><path d="M24 30H8a1 1 0 0 1 0-2h16a1 1 0 0 1 0 2ZM30 19H2a1 1 0 0 1 0-2h28a1 1 0 0 1 0 2Z" fill="#ffffff" class="fill-101820"></path></g></svg>